<?xml version="1.0" encoding="utf-8"?>
<!-- Generator: Adobe Illustrator 24.0.2, SVG Export Plug-In . SVG Version: 6.00 Build 0)  -->
<svg version="1.1" id="Layer_1" xmlns="http://www.w3.org/2000/svg" xmlns:xlink="http://www.w3.org/1999/xlink" x="0px" y="0px"
	 viewBox="0 0 144 216" style="enable-background:new 0 0 144 216;" xml:space="preserve">
<style type="text/css">
	.st0{fill:url(#SVGID_1_);}
	.st1{fill:url(#_Path__1_);}
	.st2{fill:url(#SVGID_2_);}
	.st3{fill:url(#SVGID_3_);}
	.st4{fill:url(#SVGID_4_);}
	.st5{fill:url(#SVGID_5_);}
	.st6{fill:url(#SVGID_6_);}
	.st7{fill:url(#SVGID_7_);}
	.st8{fill:url(#SVGID_8_);}
	.st9{fill:url(#SVGID_9_);}
	.st10{fill:url(#SVGID_10_);}
	.st11{fill:url(#SVGID_11_);}
	.st12{fill:url(#SVGID_12_);}
	.st13{fill:url(#SVGID_13_);}
</style>
<g>
	
		<radialGradient id="SVGID_1_" cx="-15547.9365" cy="8666.0859" r="59.8603" fx="-15551.7549" fy="8666.0859" gradientTransform="matrix(0.762 0.034 0.05 -1.12 11543.5127 10310.0127)" gradientUnits="userSpaceOnUse">
		<stop  offset="0.045" style="stop-color:#FEE900"/>
		<stop  offset="0.12" style="stop-color:#FEDE00"/>
		<stop  offset="0.254" style="stop-color:#FEBF10"/>
		<stop  offset="0.429" style="stop-color:#F78E1E"/>
		<stop  offset="0.769" style="stop-color:#EE3435"/>
		<stop  offset="0.872" style="stop-color:#E0255B"/>
		<stop  offset="0.953" style="stop-color:#CD2678"/>
		<stop  offset="1" style="stop-color:#C52783"/>
	</radialGradient>
	<path class="st0" d="M110.98,54.84c-3.18,3.7-4.66,12.03-1.44,20.48s8.17,6.61,11.25,15.22c4.07,11.36,2.17,26.63,2.17,26.63
		s4.89,14.15,8.29-0.88C138.79,88.05,110.98,61.79,110.98,54.84z"/>
	
		<radialGradient id="_Path__1_" cx="-8027.0088" cy="8236.332" r="105.0473" gradientTransform="matrix(1.225 0 0 -1.225 9929.8379 10157.8271)" gradientUnits="userSpaceOnUse">
		<stop  offset="0" style="stop-color:#39C1D2"/>
		<stop  offset="0.22" style="stop-color:#457ABE"/>
		<stop  offset="0.261" style="stop-color:#4275BA"/>
		<stop  offset="0.33" style="stop-color:#3C65AF"/>
		<stop  offset="0.333" style="stop-color:#3B64AF"/>
		<stop  offset="0.438" style="stop-color:#35459C"/>
		<stop  offset="0.522" style="stop-color:#422D81"/>
		<stop  offset="0.566" style="stop-color:#4C2873"/>
	</radialGradient>
	<path id="_Path_" class="st1" d="M72.18,172.08c32.56,0,58.93-26.52,58.93-59.22s-26.38-59.22-58.9-59.22s-58.9,26.52-58.9,59.22
		C13.25,145.59,39.66,172.08,72.18,172.08z"/>
	
		<linearGradient id="SVGID_2_" gradientUnits="userSpaceOnUse" x1="80.4924" y1="78.509" x2="55.0762" y2="161.65" gradientTransform="matrix(1 0 0 -1 0 218)">
		<stop  offset="0" style="stop-color:#121643;stop-opacity:0.4"/>
		<stop  offset="0.485" style="stop-color:#20275E;stop-opacity:0.173"/>
		<stop  offset="1" style="stop-color:#263171;stop-opacity:0"/>
	</linearGradient>
	<path class="st2" d="M116.34,149.37c-1.27,0.9-2.61,1.71-4,2.41c1.84-2.7,3.54-5.49,5.08-8.36c1.26-1.39,2.41-2.74,3.34-4.2
		c0.46-0.72,0.97-1.6,1.52-2.63c3.31-5.96,6.96-15.61,7.06-25.52v-0.02c0-0.24,0-0.49,0-0.73c0.02-2.49-0.24-4.97-0.76-7.4
		c0.03,0.19,0.05,0.38,0.07,0.57c-0.03-0.15-0.05-0.29-0.09-0.44c0.05,0.27,0.09,0.53,0.13,0.79c0.68,5.74,0.19,11.33-2.21,15.46
		c-0.04,0.06-0.08,0.12-0.12,0.18c1.25-6.27,1.67-13.2,0.28-20.13c0,0-0.56-3.37-4.7-13.6c-2.38-5.89-6.62-10.72-10.36-14.23
		c-3.28-4.06-6.26-6.78-7.9-8.5c-3.43-3.61-4.86-6.32-5.45-8.08c-0.51-0.26-7.05-6.61-7.57-6.85c-2.86,4.43-11.84,18.28-7.57,31.22
		c1.94,5.86,6.83,11.95,11.96,15.37c0.23,0.26,3.05,3.32,4.39,10.24c1.39,7.15,0.66,12.73-2.2,20.97
		c-3.36,7.24-11.96,14.39-20.01,15.12c-17.22,1.56-23.52-8.64-23.52-8.64c6.15,2.46,12.95,1.95,17.09-0.6
		c4.17-2.58,6.69-4.49,8.74-3.74c2.02,0.75,3.62-1.43,2.18-3.69c-2.28-3.51-6.43-5.31-10.54-4.59c-4.17,0.68-8,3.98-13.46,0.78
		c-0.35-0.21-0.7-0.43-1.03-0.67c-0.36-0.24,1.17,0.36,0.81,0.09c-1.06-0.58-2.95-1.84-3.44-2.29c-0.08-0.07,0.83,0.29,0.74,0.21
		c-5.11-4.21-4.47-7.05-4.31-8.84c0.13-1.43,1.06-3.26,2.62-4c0.76,0.41,1.23,0.73,1.23,0.73s-0.32-0.66-0.5-1.01
		c0.06-0.03,0.12-0.02,0.18-0.05c0.62,0.3,1.99,1.08,2.71,1.55c0.94,0.66,1.24,1.25,1.24,1.25s0.25-0.14,0.06-0.71
		c-0.07-0.24-0.35-0.99-1.28-1.75l0.06,0.01c0.56,0.32,1.08,0.68,1.58,1.09c0.26-0.95,0.73-1.95,0.63-3.73
		c-0.06-1.25-0.03-1.58-0.25-2.06c-0.2-0.42,0.11-0.58,0.45-0.15c-0.06-0.34-0.16-0.67-0.29-0.98l0-0.03
		c0.43-1.49,9.06-5.37,9.69-5.83c1.03-0.73,1.9-1.67,2.54-2.76c0.48-0.77,0.84-1.84,0.93-3.47c0.05-1.17-0.5-1.96-9.23-2.87
		c-2.39-0.24-3.79-1.96-4.58-3.56c-0.15-0.34-0.29-0.66-0.44-0.97c-0.14-0.36-0.25-0.74-0.34-1.12c1.43-4.1,3.82-7.56,7.35-10.18
		c0.19-0.17-0.77,0.04-0.58-0.13c0.22-0.2,1.69-0.79,1.96-0.93c0.34-0.16-1.44-0.92-3.02-0.73c-1.6,0.18-1.94,0.37-2.8,0.73
		c0.35-0.35,1.48-0.82,1.22-0.81c-1.73,0.26-3.87,1.27-5.71,2.41c0-0.2,0.03-0.39,0.11-0.58c-0.86,0.36-2.96,1.83-3.57,3.07
		c0.03-0.24,0.04-0.48,0.04-0.72c-0.65,0.54-1.24,1.16-1.75,1.83l-0.03,0.03c-4.96-2-9.32-2.13-13.02-1.23
		c-0.81-0.81-1.2-0.22-3.04-4.26c-0.12-0.24,0.1,0.24,0,0c-0.3-0.78,0.18,1.05,0,0c-3.09,2.44-7.16,5.2-9.11,7.15
		c-0.02,0.08,2.28-0.65,0,0c-0.8,0.23-0.74,0.7-0.86,4.98c-0.03,0.32,0,0.69-0.03,0.98c-1.56,1.99-2.62,3.67-3.02,4.54
		c-2.02,3.48-4.24,8.89-6.39,17.47c0.95-2.32,2.1-4.56,3.42-6.69c-1.79,4.55-3.52,11.69-3.87,22.7c0.43-2.27,0.99-4.52,1.66-6.73
		c-0.42,9.13,1.15,18.24,4.61,26.69c1.24,3.03,3.29,7.63,6.77,12.67c10.96,11.53,26.41,18.71,43.53,18.71
		C89.27,169.6,105.32,161.79,116.34,149.37z"/>
	
		<radialGradient id="SVGID_3_" cx="-9032.8506" cy="7072.2627" r="35.433" gradientTransform="matrix(1.219 0.123 0.123 -1.219 10281.667 9859.1748)" gradientUnits="userSpaceOnUse">
		<stop  offset="3.000000e-03" style="stop-color:#FEE900"/>
		<stop  offset="0.497" style="stop-color:#EE3435"/>
		<stop  offset="1" style="stop-color:#C52783"/>
	</radialGradient>
	<path class="st3" d="M103.12,157.75c21.62-2.5,31.2-24.79,18.9-25.23C110.92,132.17,92.88,158.93,103.12,157.75z"/>
	
		<radialGradient id="SVGID_4_" cx="-9036.0557" cy="7106.2388" r="59.1703" gradientTransform="matrix(1.219 0.123 0.123 -1.219 10281.667 9859.1748)" gradientUnits="userSpaceOnUse">
		<stop  offset="3.000000e-03" style="stop-color:#FEE800"/>
		<stop  offset="0.157" style="stop-color:#FCAF17"/>
		<stop  offset="0.316" style="stop-color:#F47925"/>
		<stop  offset="0.472" style="stop-color:#F0522F"/>
		<stop  offset="0.621" style="stop-color:#EF3835"/>
		<stop  offset="0.762" style="stop-color:#EE273C"/>
		<stop  offset="0.892" style="stop-color:#EE223F"/>
		<stop  offset="1" style="stop-color:#EE2040"/>
	</radialGradient>
	<path class="st4" d="M123.58,127.97c14.88-8.66,11-27.36,11-27.36s-5.74,6.67-9.64,17.3C121.09,128.44,114.64,133.2,123.58,127.97z
		"/>
	
		<radialGradient id="SVGID_5_" cx="-9027.6865" cy="7051.3892" r="54.2952" gradientTransform="matrix(1.219 0.123 0.123 -1.219 10281.667 9859.1748)" gradientUnits="userSpaceOnUse">
		<stop  offset="3.000000e-03" style="stop-color:#EE3435"/>
		<stop  offset="0.497" style="stop-color:#C52783"/>
		<stop  offset="0.986" style="stop-color:#60120C"/>
	</radialGradient>
	<path class="st5" d="M76.35,168.81c20.74,6.62,38.57-9.72,27.58-15.18C93.94,148.72,66.51,165.68,76.35,168.81z"/>
	
		<radialGradient id="SVGID_6_" cx="103.6652" cy="123.0055" r="103.8459" fx="107.3796" fy="121.1696" gradientTransform="matrix(1 0 0 -1 0 218)" gradientUnits="userSpaceOnUse">
		<stop  offset="0.156" style="stop-color:#FEE900"/>
		<stop  offset="0.231" style="stop-color:#FEDE00"/>
		<stop  offset="0.365" style="stop-color:#FEBF10"/>
		<stop  offset="0.541" style="stop-color:#F78E1E"/>
		<stop  offset="0.763" style="stop-color:#EE3435"/>
		<stop  offset="0.796" style="stop-color:#EE2E39"/>
		<stop  offset="0.841" style="stop-color:#E82047"/>
		<stop  offset="0.893" style="stop-color:#CF1C63"/>
		<stop  offset="0.935" style="stop-color:#B41E80"/>
	</radialGradient>
	<path class="st6" d="M125.13,135.91c0.5-0.71,1.19-2.99,1.79-4.01c3.66-5.91,3.69-10.62,3.69-10.73
		c2.21-11.05,2.01-15.56,0.65-23.9c-1.1-6.72-5.88-16.34-10.03-20.98c-4.28-4.77-1.26-3.22-5.4-6.71c-3.63-4.02-7.15-8-9.06-9.61
		C92.91,48.4,93.23,45.94,93.49,45.52c-0.05,0.05-0.11,0.12-0.2,0.22c-0.16-0.65-0.28-1.2-0.28-1.2s-7.57,7.57-9.16,20.18
		c-1.04,8.23,2.04,16.82,6.51,22.3c2.32,2.84,4.95,5.43,7.83,7.7v0c3.37,4.84,5.23,10.82,5.23,17.25c0,16.1-13.06,29.15-29.16,29.15
		c-2.2,0-4.38-0.24-6.52-0.73c-7.6-1.45-11.99-5.28-14.18-7.88c-1.25-1.49-1.79-2.58-1.79-2.58c6.81,2.44,14.34,1.93,18.91-0.6
		c4.61-2.56,7.4-4.45,9.67-3.71c2.23,0.74,4.01-1.42,2.42-3.66c-1.56-2.24-5.63-5.44-11.67-4.55c-4.62,0.67-8.85,3.95-14.9,0.78
		c-0.39-0.2-0.77-0.42-1.14-0.67c-0.4-0.24,1.3,0.36,0.9,0.09c-1.18-0.57-3.26-1.82-3.8-2.27c-0.09-0.07,0.91,0.29,0.82,0.21
		c-5.66-4.18-4.95-7-4.77-8.76c0.14-1.42,1.17-3.23,2.9-3.96c0.84,0.41,1.36,0.72,1.36,0.72s-0.36-0.65-0.55-1
		c0.07-0.03,0.13-0.02,0.2-0.05c0.69,0.3,2.2,1.07,3,1.54c1.04,0.66,1.37,1.24,1.37,1.24s0.27-0.13,0.07-0.71
		c-0.07-0.23-0.39-0.98-1.42-1.73l0.06,0.01c0.61,0.31,1.19,0.67,1.74,1.09c0.29-0.95,0.81-1.93,0.7-3.7
		c-0.07-1.24-0.04-1.56-0.28-2.04c-0.22-0.41,0.12-0.57,0.5-0.14c-0.07-0.34-0.17-0.67-0.32-0.97l0-0.03
		c0.47-1.48,10.03-5.33,10.72-5.78c1.12-0.7,2.08-1.64,2.81-2.74c0.53-0.76,0.93-1.82,1.03-3.44c0.03-0.73-0.19-1.3-2.72-1.85
		c-1.52-0.33-3.87-0.65-7.49-0.99c-2.64-0.23-4.19-1.95-5.07-3.53c-0.16-0.34-0.32-0.65-0.49-0.96c-0.16-0.36-0.28-0.73-0.38-1.11
		c1.58-4.14,4.43-7.67,8.14-10.1c0.21-0.17-0.85,0.04-0.64-0.13c0.25-0.2,1.87-0.79,2.17-0.92c0.37-0.16-1.6-0.91-3.34-0.73
		c-1.77,0.18-2.15,0.37-3.1,0.73c0.39-0.35,1.64-0.81,1.35-0.81c-1.91,0.26-4.29,1.26-6.32,2.39c0-0.2,0.04-0.39,0.12-0.57
		c-0.95,0.36-3.27,1.82-3.95,3.05c0.03-0.24,0.04-0.47,0.04-0.71c-0.71,0.53-1.36,1.14-1.94,1.82l-0.04,0.03
		c-5.49-1.98-10.32-2.11-14.41-1.22c-0.89-0.8-2.33-2.02-4.37-6.03c-0.14-0.24-0.21,0.5-0.32,0.26c-0.79-1.83-1.27-4.84-1.19-6.91
		c0,0-1.64,0.75-2.99,3.86c-0.25,0.56-0.41,0.87-0.57,1.18c-0.07,0.09,0.17-1.02,0.13-0.96c-0.24,0.4-0.84,0.95-1.11,1.68
		c-0.18,0.53-0.44,0.83-0.61,1.5L23,64.09c-0.01-0.2,0.05-0.81,0-0.68c-0.63,1.28-1.18,2.61-1.63,3.96c-0.73,2.4-1.58,5.66-1.71,9.9
		c-0.03,0.32,0,0.68-0.03,0.97c-1.73,1.97-2.9,3.64-3.35,4.5c-2.23,3.45-4.69,8.82-7.07,17.32c1.06-2.32,2.33-4.54,3.79-6.64
		c-1.98,4.51-3.9,11.6-4.28,22.51c0.48-2.26,1.1-4.49,1.84-6.67c-0.34,7.28,0.51,16.3,5.1,26.47c2.73,5.99,9.02,18.14,24.38,27.63
		l0,0c0,0,5.23,3.89,14.21,6.81c0.66,0.24,1.34,0.48,2.02,0.71c-0.22-0.09-0.42-0.18-0.63-0.27c5.98,1.79,12.19,2.7,18.43,2.71
		c23.26,0.02,30.12-9.32,30.12-9.32s-0.02,0.02-0.07,0.05c0.33-0.31,0.64-0.63,0.95-0.96c-3.67,3.47-12.04,3.7-15.18,3.45
		c5.34-1.57,8.85-2.9,15.69-5.51c0.8-0.3,1.62-0.63,2.45-1.01c0.09-0.04,0.18-0.08,0.27-0.12c0.17-0.08,0.33-0.15,0.5-0.23
		c3.33-1.57,6.46-3.53,9.33-5.84c6.86-5.48,8.36-10.83,9.14-14.35c-0.11,0.34-0.45,1.13-0.69,1.64c-1.77,3.78-5.69,6.1-9.95,8.09
		c2.03-2.66,3.9-5.43,5.63-8.29C123.66,139.52,124.09,137.36,125.13,135.91z"/>
	
		<radialGradient id="SVGID_7_" cx="95.852" cy="175.1491" r="122.6235" gradientTransform="matrix(1 0 0 -1 0 218)" gradientUnits="userSpaceOnUse">
		<stop  offset="0.279" style="stop-color:#FEE900"/>
		<stop  offset="0.402" style="stop-color:#FEDC00"/>
		<stop  offset="0.63" style="stop-color:#FDBA12"/>
		<stop  offset="0.856" style="stop-color:#F7911E"/>
		<stop  offset="0.933" style="stop-color:#F26822"/>
		<stop  offset="0.994" style="stop-color:#F04F29"/>
	</radialGradient>
	<path class="st7" d="M116.77,149.02c2.8-3.09,5.31-6.61,7.22-10.62c4.9-10.3,12.47-27.43,6.51-45.31
		c-4.71-14.14-11.19-21.87-19.41-29.42C97.74,51.41,94.01,45.94,94.01,42.68c0,0-15.41,17.18-8.73,35.1s20.37,17.26,29.43,35.96
		c10.66,22.01-8.62,46.02-24.57,52.74c0.98-0.22,35.44-8.02,37.26-27.73C127.36,139.11,126.59,144.57,116.77,149.02z"/>
	
		<linearGradient id="SVGID_8_" gradientUnits="userSpaceOnUse" x1="-9123.4824" y1="7093.1143" x2="-9085.7295" y2="7102.7373" gradientTransform="matrix(1.219 0.123 0.123 -1.219 10281.667 9859.1748)">
		<stop  offset="0" style="stop-color:#C52783;stop-opacity:0.5"/>
		<stop  offset="0.474" style="stop-color:#EE3435;stop-opacity:0.5"/>
		<stop  offset="0.486" style="stop-color:#EF3733;stop-opacity:0.513"/>
		<stop  offset="0.675" style="stop-color:#F47924;stop-opacity:0.72"/>
		<stop  offset="0.829" style="stop-color:#FCB216;stop-opacity:0.871"/>
		<stop  offset="0.942" style="stop-color:#FED604;stop-opacity:0.964"/>
		<stop  offset="1" style="stop-color:#FFE300"/>
	</linearGradient>
	<path class="st8" d="M72.12,85.08c0.05-1.16-0.55-1.95-10.18-2.85c-3.96-0.37-5.48-4.03-5.94-5.57c-1.41,3.66-1.99,7.5-1.68,12.14
		c0.21,3.04,2.26,6.31,3.24,8.23c0,0,0.22-0.28,0.32-0.39c1.84-1.92,9.55-4.84,10.27-5.25C68.95,90.89,71.99,88.67,72.12,85.08z"/>
	
		<linearGradient id="SVGID_9_" gradientUnits="userSpaceOnUse" x1="72.9276" y1="1472.0101" x2="65.6824" y2="1490.5769" gradientTransform="matrix(0.995 0.1 0.1 -0.995 -191.971 1534.536)">
		<stop  offset="0" style="stop-color:#891B53;stop-opacity:0.6"/>
		<stop  offset="1" style="stop-color:#C52783;stop-opacity:0"/>
	</linearGradient>
	<path class="st9" d="M29.73,63.45c-0.14-0.24-0.21,0.5-0.32,0.26c-0.79-1.83-1.27-4.81-1.16-6.91c0,0-1.64,0.75-2.99,3.86
		c-0.25,0.56-0.41,0.87-0.57,1.18c-0.07,0.09,0.17-1.02,0.13-0.96c-0.24,0.4-0.84,0.95-1.11,1.64c-0.22,0.56-0.44,0.86-0.61,1.56
		c-0.05,0.19,0.05-0.84,0.01-0.71c-3.15,6.08-3.75,15.28-3.42,14.89c6.7-7.16,14.38-8.85,14.38-8.85
		C33.26,68.81,31.48,67.07,29.73,63.45L29.73,63.45z"/>
	
		<linearGradient id="SVGID_10_" gradientUnits="userSpaceOnUse" x1="-234.8499" y1="-155.0826" x2="-222.3557" y2="-169.2734" gradientTransform="matrix(0.995 0.1 0.1 -0.995 287.164 -25.876)">
		<stop  offset="5.000000e-03" style="stop-color:#891B53;stop-opacity:0.5"/>
		<stop  offset="0.484" style="stop-color:#EE3435;stop-opacity:0.5"/>
		<stop  offset="1" style="stop-color:#EE3435;stop-opacity:0"/>
	</linearGradient>
	<path class="st10" d="M55.16,138.28c-9.26-3.95-19.78-9.53-19.38-22.19c0.54-16.68,15.55-13.38,15.55-13.38
		c-0.57,0.14-2.08,1.22-2.62,2.37c-0.57,1.44-1.6,4.68,1.53,8.09c4.92,5.34-10.12,12.66,13.1,26.5
		C63.93,139.98,57.9,139.47,55.16,138.28L55.16,138.28z"/>
	
		<linearGradient id="SVGID_11_" gradientUnits="userSpaceOnUse" x1="-211.215" y1="-179.7439" x2="-211.2061" y2="-169.8156" gradientTransform="matrix(0.995 0.1 0.1 -0.995 287.164 -25.876)">
		<stop  offset="0" style="stop-color:#C52783"/>
		<stop  offset="0.083" style="stop-color:#C52783;stop-opacity:0.81"/>
		<stop  offset="0.206" style="stop-color:#C52783;stop-opacity:0.565"/>
		<stop  offset="0.328" style="stop-color:#C52783;stop-opacity:0.362"/>
		<stop  offset="0.447" style="stop-color:#C52783;stop-opacity:0.204"/>
		<stop  offset="0.562" style="stop-color:#C52783;stop-opacity:0.091"/>
		<stop  offset="0.673" style="stop-color:#C52783;stop-opacity:0.023"/>
		<stop  offset="0.773" style="stop-color:#C52783;stop-opacity:0"/>
	</linearGradient>
	<path class="st11" d="M51.87,129.97c6.56,2.28,14.21,1.88,18.79-0.64c3.06-1.71,7-4.44,9.42-3.76c-2.09-0.83-3.68-1.21-5.59-1.31
		c-0.33,0-0.71-0.01-1.07-0.04c-0.7,0-1.4,0.04-2.09,0.11c-1.18,0.11-2.49,0.85-3.68,0.73c-0.06-0.01,1.16-0.5,1.06-0.48
		c-0.63,0.13-1.32,0.16-2.04,0.25c-0.46,0.05-0.86,0.11-1.31,0.13c-13.67,1.16-25.23-7.41-25.23-7.41
		C39.14,120.86,44.52,127.41,51.87,129.97L51.87,129.97z"/>
	
		<linearGradient id="SVGID_12_" gradientUnits="userSpaceOnUse" x1="91.0979" y1="170.5248" x2="131.6782" y2="79.7808" gradientTransform="matrix(1 0 0 -1 0 218)">
		<stop  offset="0" style="stop-color:#FEF053"/>
		<stop  offset="0.268" style="stop-color:#FEEE4D"/>
		<stop  offset="0.452" style="stop-color:#FEE645"/>
		<stop  offset="0.612" style="stop-color:#FFD837"/>
		<stop  offset="0.757" style="stop-color:#FFC523"/>
		<stop  offset="0.892" style="stop-color:#FBAA19"/>
		<stop  offset="0.902" style="stop-color:#FBA919"/>
		<stop  offset="0.949" style="stop-color:#F9A01B"/>
		<stop  offset="1" style="stop-color:#F7911E"/>
	</linearGradient>
	<path class="st12" d="M116.75,149.11c13.83-13.58,20.83-30.08,17.87-48.59c0,0,1.18,9.49-3.3,19.2c2.15-9.48,2.4-21.26-3.32-33.46
		c-7.63-16.28-20.19-24.85-24.98-28.42c-7.26-5.42-10.27-10.93-10.33-12.07c-2.17,4.44-8.73,19.68-0.7,32.79
		c7.52,12.29,19.37,15.94,27.66,27.21C134.93,126.54,116.75,149.11,116.75,149.11z"/>
	
		<linearGradient id="SVGID_13_" gradientUnits="userSpaceOnUse" x1="99.1109" y1="118.3363" x2="79.8883" y2="66.724" gradientTransform="matrix(1 0 0 -1 0 218)">
		<stop  offset="0" style="stop-color:#F78E1E"/>
		<stop  offset="0.04" style="stop-color:#F78E1E;stop-opacity:0.858"/>
		<stop  offset="0.084" style="stop-color:#F78E1E;stop-opacity:0.729"/>
		<stop  offset="0.13" style="stop-color:#F78E1E;stop-opacity:0.628"/>
		<stop  offset="0.178" style="stop-color:#F78E1E;stop-opacity:0.557"/>
		<stop  offset="0.227" style="stop-color:#F78E1E;stop-opacity:0.514"/>
		<stop  offset="0.282" style="stop-color:#F78E1E;stop-opacity:0.5"/>
		<stop  offset="0.389" style="stop-color:#F78E1E;stop-opacity:0.478"/>
		<stop  offset="0.524" style="stop-color:#F78E1E;stop-opacity:0.416"/>
		<stop  offset="0.676" style="stop-color:#F78E1E;stop-opacity:0.314"/>
		<stop  offset="0.838" style="stop-color:#F78E1E;stop-opacity:0.172"/>
		<stop  offset="1" style="stop-color:#F78E1E;stop-opacity:0"/>
	</linearGradient>
	<path class="st13" d="M114.77,113.78c-4.83-9.98-10.86-14.34-16.57-19.06c0.66,0.93,0.83,1.26,1.19,1.86
		c5.02,5.35,12.43,18.41,7.05,34.8c-10.12,30.85-50.6,16.32-54.85,12.24c1.72,17.86,31.6,26.4,51.06,14.82
		C113.73,147.96,122.69,130.14,114.77,113.78z"/>
</g>
</svg>
